<svg width="44" height="40" viewBox="0 0 44 40" fill="none" xmlns="http://www.w3.org/2000/svg">
<path id="Vector" d="M4.05994 17.1429C2.6106 17.1429 1.44033 15.9821 1.44033 14.5446C1.44033 14.375 1.45834 14.2143 1.49435 14.0446C1.97146 12.1696 5.65331 0 21.605 0C37.5567 0 41.2385 12.1696 41.7157 14.0446C41.7607 14.2143 41.7697 14.375 41.7697 14.5446C41.7697 15.9821 40.5994 17.1429 39.1501 17.1429H4.05994ZM11.5227 8.57143C11.5227 8.19255 11.3709 7.82919 11.1008 7.56128C10.8307 7.29337 10.4643 7.14286 10.0823 7.14286C9.70033 7.14286 9.33398 7.29337 9.06386 7.56128C8.79375 7.82919 8.642 8.19255 8.642 8.57143C8.642 8.95031 8.79375 9.31367 9.06386 9.58158C9.33398 9.84949 9.70033 10 10.0823 10C10.4643 10 10.8307 9.84949 11.1008 9.58158C11.3709 9.31367 11.5227 8.95031 11.5227 8.57143ZM33.1277 10C33.5097 10 33.876 9.84949 34.1461 9.58158C34.4162 9.31367 34.568 8.95031 34.568 8.57143C34.568 8.19255 34.4162 7.82919 34.1461 7.56128C33.876 7.29337 33.5097 7.14286 33.1277 7.14286C32.7457 7.14286 32.3793 7.29337 32.1092 7.56128C31.8391 7.82919 31.6873 8.19255 31.6873 8.57143C31.6873 8.95031 31.8391 9.31367 32.1092 9.58158C32.3793 9.84949 32.7457 10 33.1277 10ZM23.0453 5.71429C23.0453 5.33541 22.8936 4.97204 22.6235 4.70413C22.3534 4.43622 21.987 4.28571 21.605 4.28571C21.223 4.28571 20.8566 4.43622 20.5865 4.70413C20.3164 4.97204 20.1647 5.33541 20.1647 5.71429C20.1647 6.09317 20.3164 6.45653 20.5865 6.72444C20.8566 6.99235 21.223 7.14286 21.605 7.14286C21.987 7.14286 22.3534 6.99235 22.6235 6.72444C22.8936 6.45653 23.0453 6.09317 23.0453 5.71429ZM0 24.2857C0 21.9196 1.93545 20 4.321 20H38.889C41.2746 20 43.21 21.9196 43.21 24.2857C43.21 26.6518 41.2746 28.5714 38.889 28.5714H4.321C1.93545 28.5714 0 26.6518 0 24.2857ZM1.44033 32.8571C1.44033 32.0714 2.08848 31.4286 2.88067 31.4286H40.3293C41.1215 31.4286 41.7697 32.0714 41.7697 32.8571V34.2857C41.7697 37.4375 39.1861 40 36.0083 40H7.20167C4.02393 40 1.44033 37.4375 1.44033 34.2857V32.8571Z" fill="#2E0D23"/>
</svg>
