<svg width="50" height="40" viewBox="0 0 50 40" fill="none" xmlns="http://www.w3.org/2000/svg">
<g id="Vector 16">
<path d="M48.3 27.7694C47.1 27.7694 25.2754 27.7738 24.2 27.7694C23.1246 27.7651 22.6 29.1729 22.6 30.1754C22.6 31.178 23.4 32.5815 24.2 32.5815H48.3C49.5 32.5815 49.9 31.178 49.9 30.0752C49.9 28.9724 49.5 27.7694 48.3 27.7694Z" fill="#2E0D23"/>
<path d="M49.1 35.188H23.4C22.9 35.188 22.6 35.2882 22.6 35.8897V37.0927C22.6 37.8947 24.4 40 25.2 40H47C48.3 40 50 37.8947 50 37.2932V35.8897C50 35.3885 49.5726 35.1854 49.1 35.188Z" fill="#2E0D23"/>
<path d="M4 17.5439H1.3C0.500004 17.5439 4.45721e-06 17.8446 4.45721e-06 18.5464V19.7494C1.79642 26.9922 4.5 37.8947 4.6 38.2957C4.7 38.6967 5.5 40 6 40H21.2C20.69 39.4377 20.4139 39.0288 20 37.594V35.589C20.3282 34.4877 20.5926 34.0555 21.2 33.6842V33.2832C20.6272 32.6272 20.3663 32.1406 20 31.0777V28.9724C20.2412 28.1172 20.6 27.4687 20.6 27.4687C20.6 27.4687 20.9281 26.8353 21.4 26.5664V26.2657C20.3121 25.2731 20.1105 24.5808 20 23.1579H19.8C19.2829 23.5395 18.8654 23.6646 17.9 23.7594L12.5 23.6592C10.8321 23.4577 9.97588 23.2465 8.7 22.5564C7.54279 21.9119 6.6 20.8521 6.6 20.8521C5.75655 19.7731 5.4595 19.1479 5.3 18.7469C5.14051 18.3459 4.8 17.5439 4 17.5439Z" fill="#2E0D23"/>
<path d="M1.7 6.31581H0.700004C0.3 6.31581 0.0156972 6.67014 4.45721e-06 7.01757V8.22057L1.3 15.0376H4.5C4.5 15.0376 3.4 7.218 3.2 6.81707C3 6.41614 2.3 6.31581 1.7 6.31581Z" fill="#2E0D23"/>
<path d="M4.9 3.00755V2.00504C4.9 1.50386 7.6 0.000101521 8.3 3.12373e-05C9 -3.90467e-05 8.6 3.12373e-05 9.2 3.12373e-05C9.8 3.12373e-05 9.9 0.601534 9.9 1.10279V20.3509C9.2 19.95 7.7 18.747 7.5 17.8446C7.3 16.9423 4.9 3.00755 4.9 3.00755Z" fill="#2E0D23"/>
<path d="M12.6 21.1529V0.701785C12.6 0.401033 12.9 0.100282 13.2 0.100282H14.4C15.1 0.100282 17.4 1.60404 17.4 2.00504V21.1529H12.6Z" fill="#2E0D23"/>
<path d="M20 3.9098V20.3509C21.4111 19.1087 22.5 17.8446 22.6 17.3434C22.7 16.8421 25 4.41106 25 4.41106V3.40855C25 3.00755 24.7 2.50629 24.3 2.50629H23.6C23.1 2.50629 21.1 3.16853 20.9 3.20805C20.7 3.24757 20.0011 3.5738 20 3.9098Z" fill="#2E0D23"/>
<path d="M29.5 6.31581H28.4L27.1 6.61657L25.6 15.1379H26.1L29 13.5339L30 8.32082V6.91732L29.5 6.31581Z" fill="#2E0D23"/>
<path fill-rule="evenodd" clip-rule="evenodd" d="M24.3 25.1629H48.3C48.8 25.1629 50 24.3609 50 23.8597V22.3559C50 21.8546 49.2 20.3509 47.9 19.0476C46.6 17.7444 44.9 16.8421 43.1 16.0401C41.3 15.2381 39.8 15.1379 38.8 15.1379H33.9C33.8384 15.1379 33.7725 15.1368 33.7017 15.1357C33.083 15.1257 32.0843 15.1097 30.2 15.7394C28.1 16.4411 26.5 17.3434 24.7 19.0476C22.9 20.7519 22.6 21.3534 22.6 22.3559V23.8597C22.6 24.2607 23.4 25.1629 24.3 25.1629ZM30 18.7469C29.1 18.7469 28.7 19.3484 28.7 20.0501C28.7 20.7519 29.3 21.3534 30 21.3534C30.7 21.3534 31.3 20.7519 31.3 20.0501C31.3 19.3484 30.9 18.7469 30 18.7469ZM36.2 17.5439C35.6 17.5439 35 18.1454 35 18.7469C35 19.3484 35.5 20.0501 36.2 20.0501C36.9 20.0501 37.4 19.3484 37.4 18.7469C37.4 18.1454 36.8 17.5439 36.2 17.5439ZM41.2 20.0501C41.2 19.3484 41.7 18.7469 42.5 18.7469C43.3 18.7469 43.8 19.4486 43.8 20.0501C43.8 20.6516 43.1 21.3534 42.5 21.3534C41.9 21.3534 41.2 20.7519 41.2 20.0501Z" fill="#2E0D23"/>
</g>
</svg>
