<svg width="31" height="40" viewBox="0 0 31 40" fill="none" xmlns="http://www.w3.org/2000/svg">
<g id="Vector">
<path d="M18.1799 21.1321H13.3057V0.641568C13.3057 0.339682 13.7591 7.52312e-05 14.0991 3.62171e-05C14.4392 -2.79691e-06 14.0991 -2.05397e-05 14.9304 3.62171e-05C15.7617 9.29739e-05 18.1799 1.50956 18.1799 2.03779V21.1321Z" fill="#2E0D23"/>
<path d="M10.6985 0.905694V20.4151C10.3585 20.2264 8.31808 19.0566 8.05358 17.3585C7.78909 15.6603 5.71093 2.90569 5.71093 2.90569C5.71093 2.90569 5.59758 2.60383 5.71093 2.00003C5.82429 1.39623 8.12915 3.62171e-05 9.07377 3.62171e-05C9.07377 3.62171e-05 9.52719 8.55967e-06 9.90504 3.62171e-05C10.2829 6.38746e-05 10.6985 0.490625 10.6985 0.905694Z" fill="#2E0D23"/>
<path d="M1.32796 6.26415C1.47909 6.26414 2.23484 6.26416 2.53707 6.26415C2.83929 6.26415 3.67056 6.56605 3.78396 6.90566C3.89737 7.24527 5.10643 14.8679 5.10643 14.8679H2.08365C2.08365 14.8679 0.761221 7.92451 0.7234 7.77358C0.685579 7.62265 0.67223 7.05662 0.7234 6.90566C0.774571 6.75471 1.17682 6.26417 1.32796 6.26415Z" fill="#2E0D23"/>
<path d="M7.07118 40H24.5277C25.4346 40 26.0769 39.283 26.1902 38.7925C26.3036 38.3019 30.8 20.151 30.8 20.151V18.5284C30.8 18.0378 30.1576 17.5095 29.7042 17.5095H26.5303C25.8502 17.5095 24.3671 21.0969 23.5075 21.7736C22.648 22.4504 20.1069 23.6982 18.5955 23.6982H13.0412C11.4542 23.6982 8.54479 22.2265 8.20472 21.9623C7.86466 21.6982 6.92004 20.721 6.42884 19.8114C5.93764 18.9018 5.93764 17.7359 5.06949 17.5095H1.93246C1.10122 17.5095 0.610022 18.2642 0.609993 18.717C0.609964 19.1699 0.609993 19.434 0.609993 19.434C0.609993 19.434 5.10638 37.9623 5.25751 38.4906C5.40865 39.0189 6.23992 40 7.07118 40Z" fill="#2E0D23"/>
<path d="M20.7492 3.84917V20.3397C21.5805 20.0378 23.0919 18.9057 23.2053 18.2642C23.3186 17.6227 25.8124 4.33974 25.8124 4.33974V3.20767C25.8124 2.83031 25.4723 2.37748 25.0567 2.37748H24.2254C23.5453 2.37748 20.7492 3.05672 20.7492 3.84917Z" fill="#2E0D23"/>
<path d="M26.5303 14.9435H29.5153L30.8 8.67935V6.90577C30.8 6.56615 30.4221 6.26426 30.0065 6.26426H29.0619C28.5707 6.26426 27.9283 6.45294 27.8906 6.64162C27.8528 6.8303 26.5303 14.9435 26.5303 14.9435Z" fill="#2E0D23"/>
</g>
</svg>
