<svg width="41" height="40" viewBox="0 0 41 40" fill="none" xmlns="http://www.w3.org/2000/svg">
<path id="Vector" d="M13.4811 0.00883282C11.6973 -0.116371 10.203 1.10436 9.76483 2.72418L8.84164 6.19858C8.88075 6.19858 8.9277 6.19858 8.96681 6.19858C22.7913 6.19858 34.0026 17.4121 34.0026 31.2393C34.0026 31.2784 34.0026 31.3254 34.0026 31.3645L37.4763 30.4411C39.1036 30.0107 40.3163 28.5083 40.1911 26.7241C39.2053 12.4196 27.7828 0.994811 13.4811 0.00883282ZM31.4834 32.0375C31.4912 31.7714 31.499 31.5054 31.499 31.2393C31.499 18.7894 21.4143 8.70265 8.96681 8.70265C8.70081 8.70265 8.4348 8.71048 8.1688 8.71831L0.24341 38.4307C0.126055 38.8611 0.251234 39.3228 0.564181 39.6358C0.877128 39.9488 1.33873 40.074 1.76903 39.9566L31.4834 32.0375ZM13.974 16.2149C14.638 16.2149 15.2748 16.4787 15.7443 16.9483C16.2138 17.4179 16.4776 18.0548 16.4776 18.7189C16.4776 19.3831 16.2138 20.02 15.7443 20.4896C15.2748 20.9592 14.638 21.223 13.974 21.223C13.31 21.223 12.6732 20.9592 12.2037 20.4896C11.7342 20.02 11.4704 19.3831 11.4704 18.7189C11.4704 18.0548 11.7342 17.4179 12.2037 16.9483C12.6732 16.4787 13.31 16.2149 13.974 16.2149ZM18.9811 26.2312C18.9811 25.567 19.2449 24.9301 19.7144 24.4605C20.1839 23.9909 20.8207 23.7271 21.4847 23.7271C22.1487 23.7271 22.7855 23.9909 23.255 24.4605C23.7245 24.9301 23.9883 25.567 23.9883 26.2312C23.9883 26.8953 23.7245 27.5322 23.255 28.0018C22.7855 28.4714 22.1487 28.7352 21.4847 28.7352C20.8207 28.7352 20.1839 28.4714 19.7144 28.0018C19.2449 27.5322 18.9811 26.8953 18.9811 26.2312ZM7.71503 29.9873C7.71503 29.3231 7.9788 28.6862 8.44831 28.2166C8.91782 27.747 9.55461 27.4832 10.2186 27.4832C10.8826 27.4832 11.5194 27.747 11.9889 28.2166C12.4584 28.6862 12.7222 29.3231 12.7222 29.9873C12.7222 30.6514 12.4584 31.2883 11.9889 31.7579C11.5194 32.2275 10.8826 32.4913 10.2186 32.4913C9.55461 32.4913 8.91782 32.2275 8.44831 31.7579C7.9788 31.2883 7.71503 30.6514 7.71503 29.9873Z" fill="#2E0D23"/>
</svg>
