<svg width="36" height="40" viewBox="0 0 36 40" fill="none" xmlns="http://www.w3.org/2000/svg">
<g id="Vector ">
<path d="M6.56491 0.00121406H29.4596C31.0243 -0.0547143 31.8312 1.82459 33.2754 5.03944H34.1526C34.7833 5.02173 35.6 6.22226 35.6 6.70423V8.2814C35.6 8.67563 34.5035 9.85853 34.1526 9.85853H2.09123C1.78421 9.85853 0.600067 8.80706 0.600001 8.32517C0.599936 7.84327 0.600007 7.14231 0.600001 6.61657C0.599996 6.09083 1.69656 5.0394 2.09123 5.0394H3.05614C4.70044 0.949966 5.42573 0.0983268 6.56491 0.00121406Z" fill="#2E0D23"/>
<path d="M29.8105 35.838L31.9596 12.3995H4.45965L6.56491 35.838C7.0831 38.6208 8.41928 39.3882 10.5561 40H25.7754C28.2096 39.3202 29.0339 38.3429 29.8105 35.838Z" fill="#2E0D23"/>
</g>
</svg>
